<?xml version="1.0" encoding="UTF-8"?>
<svg width="11px" height="20px" viewBox="0 0 11 20" version="1.1" xmlns="http://www.w3.org/2000/svg" xmlns:xlink="http://www.w3.org/1999/xlink">
    <!-- Generator: Sketch 48.2 (47327) - http://www.bohemiancoding.com/sketch -->
    <title>2</title>
    <desc>Created with Sketch.</desc>
    <defs></defs>
    <g id="Footer" stroke="none" stroke-width="1" fill="none" fill-rule="evenodd" transform="translate(-142.000000, -122.000000)">
        <g id="2">
            <g transform="translate(135.000000, 120.000000)">
                <rect id="Rectangle-11" fill-opacity="0" fill="#D8D8D8" x="0" y="0" width="24" height="24"></rect>
                <path d="M10.2086296,13.055 L7,13.055 L7,9.5 L10.2086296,9.5 L10.2086296,6.68833333 C10.2086296,5.20333333 10.6530381,4.05166667 11.5418552,3.23 C12.4306723,2.41 13.6110213,2 15.0829024,2 C16.2774725,2 17.2498384,2.05166667 18,2.15666667 L18,5.32 L16.0001616,5.32 C15.25,5.32 14.7362637,5.47666667 14.4589528,5.79 C14.2367485,6.05 14.1247576,6.46666667 14.1247576,7.04 L14.1247576,9.5 L17.6658048,9.5 L17.1662896,13.055 L14.1247576,13.055 L14.1247576,22 L10.2086296,22 L10.2086296,13.055 Z" id="Fill-1" fill="#1096BF"></path>
            </g>
        </g>
    </g>
</svg>