<svg width="1373px" height="875px" viewBox="0 0 1373 875" version="1.1" xmlns="http://www.w3.org/2000/svg" xmlns:xlink="http://www.w3.org/1999/xlink">
    <defs>
        <polygon id="path-1" points="0.337967893 0.317784091 112.594319 0.317784091 112.594319 111.953883 0.337967893 111.953883"></polygon>
        <polygon id="path-3" points="0.114395062 0.0351838384 112 0.0351838384 112 111.924477 0.114395062 111.924477"></polygon>
    </defs>
    <g id="02a.landing-social-universe" stroke="none" stroke-width="1" fill="none" fill-rule="evenodd" transform="translate(-67.000000, 0.000000)" opacity="0.0399999991">
        <g id="Hero">
            <g id="Page-1" transform="translate(67.000000, -36.000000)">
                <path d="M1134.48328,820 C1180.7638,820 1217.99997,782.747504 1217.99997,736.382992 C1218.03548,690.38413 1180.7638,653 1134.51878,653 C1088.36982,653 1051,690.133398 1051,736.382992 C1051,782.300365 1088.36982,820 1134.48328,820" id="Fill-3" fill="#FFFFFF"></path>
                <path d="M565.100583,157.028979 C551.450441,123.960606 513.624167,108.179585 480.646076,122.020316 C447.801728,135.76299 432.325158,173.339928 445.941864,206.226791 C459.441545,239.278474 497.251101,254.761149 530.195757,240.951713 C563.15713,227.211126 578.650417,189.70095 565.100583,157.028979" id="Fill-5" fill="#FFFFFF"></path>
                <path d="M206.061789,445.959989 C173.41284,432.295874 135.426041,447.786328 121.862308,481.090911 C108.348656,513.812486 123.967816,551.432162 156.764923,565.328226 C189.678887,578.478291 227.469534,562.971119 241.198118,530.065657 C254.644995,497.277214 238.87559,459.456933 206.061789,445.959989" id="Fill-9" fill="#FFFFFF"></path>
                <path d="M1315.1836,905.697311 C1282.172,892.498459 1244.54655,908.037829 1230.99964,940.744482 C1217.25212,973.749969 1232.84267,1011.59113 1265.66829,1024.97388 C1298.87631,1038.73697 1336.48504,1023.26238 1350.11763,990.421982 C1363.6332,957.38097 1348.15758,919.627574 1315.1836,905.697311" id="Fill-11" fill="#FFFFFF"></path>
                <path d="M156.806519,905.835603 C123.970316,919.625946 108.346353,957.441406 121.862355,990.432646 C135.428446,1023.22357 173.490724,1038.67485 206.078563,1025.04726 C238.881372,1011.56991 254.653518,973.785748 241.187607,940.82998 C227.454549,908.172596 189.676115,892.308173 156.806519,905.835603" id="Fill-13" fill="#FFFFFF"></path>
                <path d="M1265.66876,445.950203 C1232.84422,459.444268 1217.25209,497.209706 1230.99915,530.000681 C1244.56443,562.808348 1282.2388,578.706181 1315.21379,565.162037 C1348.16998,551.302816 1363.63047,513.787771 1350.11534,480.581562 C1336.49782,447.790587 1298.8757,432.322595 1265.66876,445.950203" id="Fill-15" fill="#FFFFFF"></path>
                <path d="M905.785202,157.046414 C892.390298,189.732615 908.091139,227.259129 940.72516,241.005701 C973.634892,254.687568 1011.3591,239.331733 1025.13833,206.265654 C1038.66064,173.364468 1023.02664,135.771162 989.999942,122.022503 C957.30326,108.175743 919.62709,123.963637 905.785202,157.046414" id="Fill-19" fill="#FFFFFF"></path>
                <g id="Group-23" transform="translate(681.000000, 0.000000)">
                    <mask id="mask-2" fill="white">
                        <use xlink:href="#path-1"></use>
                    </mask>
                    <g id="Clip-22"></g>
                    <path d="M56.4997897,0.31736553 C25.5873405,0.31736553 0.337967893,25.1756799 0.337967893,56.1512576 C0.337967893,86.8798845 25.5873405,111.953758 56.4997897,111.953758 C87.3470494,112.018634 112.594319,86.8798845 112.594319,56.1512576 C112.594319,25.1756799 87.3470494,0.31736553 56.4997897,0.31736553" id="Fill-21" fill="#FFFFFF" mask="url(#mask-2)"></path>
                </g>
                <path d="M214.485874,216.469539 C192.549406,238.280027 192.448866,273.770303 214.519387,295.58079 C236.489369,317.456289 271.82273,317.489844 293.643997,295.58079 C315.446412,273.770303 315.446412,238.280027 293.67751,216.469539 C271.82273,194.510154 236.489369,194.510154 214.485874,216.469539" id="Fill-26" fill="#FFFFFF"></path>
                <path d="M0.000816006079,737.007361 C0.000816006079,768.002685 24.9074499,793 55.8086896,793 C86.8943142,793 111.968571,768.053159 112,737.007361 C111.968571,705.927913 86.8943142,681 55.8086896,681 C24.8739253,681 -0.164711383,705.927913 0.000816006079,737.007361" id="Fill-30" fill="#FFFFFF"></path>
                <g id="Group-34" transform="translate(1360.000000, 681.000000)">
                    <mask id="mask-4" fill="white">
                        <use xlink:href="#path-3"></use>
                    </mask>
                    <g id="Clip-33"></g>
                    <path d="M0.114395062,55.9871838 C0.147975309,87.0022949 24.8294568,111.924477 56.0171111,111.924477 C86.7514321,111.924477 112.001679,87.0022949 112.001679,55.9703758 C112.001679,24.9384566 86.7829136,0.0351838384 56.0171111,0.0351838384 C24.8294568,0.0351838384 0.147975309,24.9384566 0.114395062,55.9871838" id="Fill-32" fill="#FFFFFF" mask="url(#mask-4)"></path>
                </g>
                <path d="M1178.34269,295.565487 C1200.12875,317.428068 1235.56881,317.461599 1257.47427,295.76458 C1279.51381,273.8035 1279.51381,238.304051 1257.44285,216.508533 C1235.56881,194.497156 1200.09733,194.497156 1178.34269,216.508533 C1156.55244,238.304051 1156.55244,273.769969 1178.34269,295.565487" id="Fill-37" fill="#FFFFFF"></path>
                <path d="M1012.79471,458.23393 C1041.85431,487.081455 1088.9874,487.428739 1118.33025,458.23393 C1147.22325,429.022484 1147.22325,382.051676 1118.33025,352.973321 C1088.9874,323.64542 1041.95428,323.695329 1012.79471,353.004514 C983.735098,382.051676 983.735098,429.022484 1012.79471,458.23393" id="Fill-41" fill="#FFFFFF"></path>
                <path d="M736.483294,398 C782.696999,398 820,360.777675 820,314.375668 C820,268.389494 782.696999,231 736.483294,231 C690.336414,231 653,268.13874 653,314.375668 C653,360.31378 690.336414,398 736.483294,398" id="Fill-43" fill="#FFFFFF"></path>
                <path d="M339.449892,820 C385.663591,820 423,782.747504 423,736.382992 C423,690.38413 385.663591,653 339.449892,653 C293.336431,653 255.96661,690.133398 256.000022,736.382992 C256.000022,782.317081 293.336431,820 339.449892,820" id="Fill-45" fill="#FFFFFF"></path>
                <path d="M458.071655,458.259745 C487.292806,429.119228 487.326085,382.029252 458.071655,352.872062 C428.950342,323.714872 381.978938,323.714872 352.741148,352.838718 C323.752951,382.029252 323.752951,429.119228 352.741148,458.326433 C381.978938,487.235627 429.147937,487.235627 458.071655,458.259745" id="Fill-49" fill="#FFFFFF"></path>
            </g>
        </g>
    </g>
</svg>