<svg width="51px" height="51px" viewBox="0 0 51 51" version="1.1" xmlns="http://www.w3.org/2000/svg" xmlns:xlink="http://www.w3.org/1999/xlink">
    <g id="02a.landing-social-universe" stroke="none" stroke-width="1" fill="none" fill-rule="evenodd" transform="translate(-30.000000, -856.000000)">
        <g id="Data-Analytics" transform="translate(24.000000, 704.000000)">
            <g id="1" transform="translate(0.000000, 145.000000)">
                <g id="ic_analytics">
                    <rect id="Rectangle" fill="#D8D8D8" opacity="0" x="0" y="0" width="64" height="64"></rect>
                    <g id="Page-1" transform="translate(6.400000, 6.400000)" fill="#213A4B">
                        <g id="Group-3" transform="translate(0.000000, 0.389896)">
                            <path d="M49.6488727,37.8404461 C49.6488727,38.4028703 49.1888485,38.8597915 48.624097,38.8597915 L1.80014545,38.8597915 C1.23539394,38.8597915 0.776145455,38.4028703 0.776145455,37.8404461 L0.776145455,2.17809455 C0.776145455,1.61799758 1.23539394,1.16185212 1.80014545,1.16185212 L48.624097,1.16185212 C48.9002667,1.16185212 49.1593697,1.26890667 49.3533091,1.46362182 C49.5441455,1.65445818 49.6496485,1.90813091 49.6488727,2.17809455 L49.6488727,37.8404461 Z M49.9025455,0.915161212 C49.5619879,0.573827879 49.1081697,0.386094545 48.624097,0.386094545 L1.80014545,0.386094545 C0.807951515,0.386094545 0.000387878788,1.18977939 0.000387878788,2.17809455 L0.000387878788,37.8404461 C0.000387878788,38.8303127 0.807951515,39.6355491 1.80014545,39.6355491 L23.7990788,39.6355491 L23.7990788,47.6118885 L13.7623273,47.6118885 C12.9826909,47.6118885 12.3504485,48.2433552 12.3504485,49.0167855 C12.3504485,49.7933188 12.9842424,50.4240097 13.7623273,50.4240097 L36.6673455,50.4240097 C37.4469818,50.4240097 38.0792242,49.7917673 38.0792242,49.0167855 C38.0792242,48.2418036 37.4454303,47.6118885 36.6673455,47.6118885 L26.6267152,47.6118885 L26.6267152,39.6355491 L48.624097,39.6355491 C49.6170667,39.6355491 50.4246303,38.8303127 50.4246303,37.8404461 L50.4246303,2.1788703 C50.4254061,1.70255515 50.24,1.25339152 49.9025455,0.915161212 Z" id="Fill-1"></path>
                        </g>
                        <path d="M15.4617794,32.4355879 C15.4617794,32.4929939 15.4144582,32.5410909 15.3586036,32.5410909 L11.3502642,32.5410909 L11.3502642,32.5403152 L10.5745067,32.5403152 C10.5186521,32.5403152 10.4705552,32.4914424 10.4705552,32.4348121 L10.4705552,21.0086788 C10.4705552,20.9512727 10.5171006,20.905503 10.5745067,20.905503 L15.3586036,20.905503 C15.4152339,20.905503 15.4617794,20.9512727 15.4617794,21.0086788 L15.4617794,32.4355879 Z M15.3586036,20.1297455 L10.5745067,20.1297455 C10.0896582,20.1297455 9.69479758,20.5238303 9.69479758,21.0086788 L9.69479758,32.4348121 C9.69479758,32.9196606 10.0896582,33.3160727 10.5745067,33.3160727 L10.5745067,33.3168485 L15.3586036,33.3168485 C15.8434521,33.3168485 16.237537,32.9204364 16.237537,32.4355879 L16.237537,21.0086788 C16.237537,20.5238303 15.8434521,20.1297455 15.3586036,20.1297455 Z" id="Fill-4"></path>
                        <path d="M31.7867442,32.4345018 C31.7867442,32.4919079 31.7386473,32.5400048 31.6827927,32.5400048 L26.8994715,32.5400048 C26.8428412,32.5400048 26.79552,32.4919079 26.79552,32.4345018 L26.79552,15.4190352 C26.79552,15.3616291 26.8428412,15.3135321 26.8994715,15.3135321 L31.6827927,15.3135321 C31.7386473,15.3135321 31.7867442,15.3616291 31.7867442,15.4190352 L31.7867442,32.4345018 Z M31.6827927,14.5377745 L26.8994715,14.5377745 C26.4138473,14.5377745 26.0197624,14.9334109 26.0197624,15.4190352 L26.0197624,32.4345018 C26.0197624,32.9193503 26.4138473,33.3157624 26.8994715,33.3157624 L31.6827927,33.3157624 C32.168417,33.3157624 32.5625018,32.9193503 32.5625018,32.4345018 L32.5625018,15.4190352 C32.5625018,14.9334109 32.168417,14.5377745 31.6827927,14.5377745 Z" id="Fill-6"></path>
                        <path d="M23.623137,32.4355879 C23.623137,32.4929939 23.5758158,32.5410909 23.5199612,32.5410909 L19.5123976,32.5410909 L19.5123976,32.5403152 L18.73664,32.5403152 C18.6807855,32.5403152 18.6334642,32.4914424 18.6334642,32.4348121 L18.6334642,13.1789576 C18.6334642,13.1223273 18.6807855,13.0742303 18.73664,13.0742303 L23.5199612,13.0742303 C23.5758158,13.0742303 23.623137,13.1223273 23.623137,13.1789576 L23.623137,32.4355879 Z M23.5199612,12.2984727 L18.73664,12.2984727 C18.2517915,12.2984727 17.8577067,12.6941091 17.8577067,13.1789576 L17.8577067,32.4348121 C17.8577067,32.9196606 18.2517915,33.3160727 18.73664,33.3160727 L18.73664,33.3168485 L23.5199612,33.3168485 C24.0048097,33.3168485 24.3988945,32.9204364 24.3988945,32.4355879 L24.3988945,13.1789576 C24.3988945,12.6941091 24.0040339,12.2984727 23.5199612,12.2984727 Z" id="Fill-8"></path>
                        <path d="M39.9511273,32.4345018 C39.9511273,32.4919079 39.9038061,32.5400048 39.8479515,32.5400048 L35.062303,32.5400048 C35.0064485,32.5400048 34.9591273,32.4919079 34.9591273,32.4345018 L34.9591273,8.36352 C34.9591273,8.3068897 35.0064485,8.25956848 35.062303,8.25956848 L39.8479515,8.25956848 C39.9038061,8.25956848 39.9511273,8.3068897 39.9511273,8.36352 L39.9511273,32.4345018 Z M39.8479515,7.48381091 L35.062303,7.48381091 C34.5774545,7.48381091 34.1833697,7.87944727 34.1833697,8.36352 L34.1833697,32.4345018 C34.1833697,32.9193503 34.5774545,33.3157624 35.062303,33.3157624 L39.8479515,33.3157624 C40.3328,33.3157624 40.7268848,32.9193503 40.7268848,32.4345018 L40.7268848,8.36352 C40.7268848,7.87944727 40.3328,7.48381091 39.8479515,7.48381091 Z" id="Fill-10"></path>
                    </g>
                </g>
            </g>
        </g>
    </g>
</svg>