<svg width="52px" height="52px" viewBox="0 0 52 52" version="1.1" xmlns="http://www.w3.org/2000/svg" xmlns:xlink="http://www.w3.org/1999/xlink">
    <g id="02a.landing-social-universe" stroke="none" stroke-width="1" fill="none" fill-rule="evenodd" transform="translate(-30.000000, -1254.000000)">
        <g id="Data-Analytics" transform="translate(24.000000, 704.000000)">
            <g id="3" transform="translate(0.000000, 544.000000)">
                <g id="ic_analytics">
                    <rect id="Rectangle" fill="#D8D8D8" opacity="0" x="0" y="0" width="64" height="64"></rect>
                    <g id="Page-1" transform="translate(6.400000, 6.400000)" fill="#213A4B">
                        <path d="M38.2753871,13.4488222 L45.4748948,13.4488222 C45.6072271,13.4488222 45.7135655,13.341696 45.7143532,13.208576 L45.7143532,12.4949268 C45.7143532,11.9128222 45.3496517,11.3913698 44.8077194,11.1983852 L43.075584,10.576896 L43.075584,9.76478523 L43.0543163,9.76478523 C43.6017625,9.30949908 43.9617378,8.56197908 43.9617378,7.71520985 C43.9617378,6.32887138 43.0046917,5.20168369 41.8270917,5.20168369 C40.6510671,5.20168369 39.6932332,6.32887138 39.6932332,7.71520985 C39.6932332,8.60136369 40.0870794,9.37802831 40.6770609,9.82543754 L40.6746978,9.82543754 L40.6746978,10.576896 L38.9433502,11.1983852 C38.3998425,11.3913698 38.0351409,11.9128222 38.0351409,12.4949268 L38.0351409,13.208576 C38.0351409,13.341696 38.1422671,13.4488222 38.2753871,13.4488222" id="Fill-1"></path>
                        <path d="M12.2580677,27.4730535 L10.5251446,26.852352 L10.5251446,26.0394535 L10.5046646,26.0402412 C11.0521108,25.5849551 11.4120862,24.8374351 11.4120862,23.9898782 C11.4120862,22.6035397 10.4542523,21.476352 9.27744,21.476352 C8.10062769,21.476352 7.14358154,22.6035397 7.14358154,23.9898782 C7.14358154,24.876032 7.53664,25.6526966 8.12662154,26.1001058 L8.12504615,26.1001058 L8.12504615,26.852352 L6.39369846,27.4730535 C5.85019077,27.6660382 5.48548923,28.1874905 5.48548923,28.7695951 L5.48548923,29.484032 C5.48548923,29.617152 5.59261538,29.7234905 5.72573538,29.7234905 L12.9244554,29.7234905 C13.0575754,29.7234905 13.1647015,29.617152 13.1647015,29.484032 L13.1647015,28.7695951 C13.1647015,28.1874905 12.8,27.6660382 12.2580677,27.4730535" id="Fill-3"></path>
                        <g id="Group-7" transform="translate(0.000000, -0.000079)">
                            <path d="M41.8745895,50.4123077 C37.1673403,50.4123077 33.3375803,46.5825477 33.3375803,41.8745108 C33.3375803,37.1680492 37.1673403,33.3375015 41.8745895,33.3375015 C46.5826265,33.3375015 50.4123865,37.1680492 50.4123865,41.8745108 C50.4123865,46.5825477 46.5826265,50.4123077 41.8745895,50.4123077 M9.32478031,34.1377969 C4.61753108,34.1377969 0.787771077,30.3080369 0.787771077,25.6 C0.787771077,20.8927508 4.61753108,17.0629908 9.32478031,17.0629908 C14.0328172,17.0629908 17.8625772,20.8927508 17.8625772,25.6 C17.8625772,30.3080369 14.0328172,34.1377969 9.32478031,34.1377969 M41.8745895,0.787692308 C46.5826265,0.787692308 50.4123865,4.61745231 50.4123865,9.32548923 C50.4123865,14.0327385 46.5826265,17.8624985 41.8745895,17.8624985 C37.1673403,17.8624985 33.3375803,14.0327385 33.3375803,9.32548923 C33.3375803,4.61745231 37.1673403,0.787692308 41.8745895,0.787692308 M41.8745895,32.5498092 C38.1598326,32.5498092 34.9555003,34.7388062 33.4573095,37.8895754 L17.5868849,29.9102523 C18.2627249,28.6192246 18.6502695,27.1556923 18.6502695,25.6 C18.6502695,24.1010215 18.2863557,22.6886892 17.6554142,21.43232 L33.3746018,13.1394954 C34.8357711,16.3832123 38.0920911,18.6501908 41.8745895,18.6501908 C47.0166449,18.6501908 51.2000788,14.4675446 51.2000788,9.32548923 C51.2000788,4.18343385 47.0166449,0 41.8745895,0 C36.7333218,0 32.549888,4.18343385 32.549888,9.32548923 C32.549888,10.4046277 32.7436603,11.43808 33.082368,12.4030031 L17.2710203,20.7446646 C15.6302572,18.0688738 12.6866511,16.2752985 9.32478031,16.2752985 C4.18272492,16.2752985 7.87692308e-05,20.4579446 7.87692308e-05,25.6 C7.87692308e-05,30.7420554 4.18272492,34.9254892 9.32478031,34.9254892 C12.6307249,34.9254892 15.5325834,33.1917785 17.1891003,30.5908185 L33.1493218,38.61504 C32.7680788,39.6311631 32.549888,40.7268431 32.549888,41.8745108 C32.549888,47.0165662 36.7333218,51.2 41.8745895,51.2 C47.0166449,51.2 51.2000788,47.0165662 51.2000788,41.8745108 C51.2000788,36.7332431 47.0166449,32.5498092 41.8745895,32.5498092" id="Fill-5"></path>
                        </g>
                        <path d="M44.8077194,43.7476431 L43.075584,43.1269415 L43.075584,42.3148308 L43.0543163,42.3148308 C43.6017625,41.8595446 43.9617378,41.1120246 43.9617378,40.2644677 C43.9617378,38.8781292 43.0046917,37.7517292 41.8270917,37.7517292 C40.6510671,37.7517292 39.6932332,38.8781292 39.6932332,40.2644677 C39.6932332,41.1506215 40.0870794,41.9272862 40.6770609,42.3754831 L40.6746978,42.3754831 L40.6746978,43.1269415 L38.9433502,43.7476431 C38.3998425,43.9414154 38.0351409,44.46208 38.0351409,45.0441846 L38.0351409,45.7586215 C38.0351409,45.8917415 38.1422671,45.99808 38.2753871,45.99808 L45.4748948,45.99808 C45.6072271,45.99808 45.7135655,45.8917415 45.7143532,45.7586215 L45.7143532,45.0441846 C45.7143532,44.46208 45.3496517,43.9414154 44.8077194,43.7476431" id="Fill-8"></path>
                    </g>
                </g>
            </g>
        </g>
    </g>
</svg>