<svg width="64px" height="64px" viewBox="0 0 40 52" version="1.1" xmlns="http://www.w3.org/2000/svg" xmlns:xlink="http://www.w3.org/1999/xlink">
    <g id="02a.landing-social-universe" stroke="none" stroke-width="1" fill="none" fill-rule="evenodd" transform="translate(-36.000000, -1050.000000)">
        <g id="Data-Analytics" transform="translate(24.000000, 704.000000)">
            <g id="2" transform="translate(0.000000, 340.000000)">
                <g id="ic_analytics">
                    <rect id="Rectangle" fill="#D8D8D8" opacity="0" x="0" y="0" width="64" height="64"></rect>
                    <path d="M37.4439808,32.8696123 C43.7802129,35.5682462 47.7165698,40.9836308 47.7165698,47.0016 L47.7165698,48.4099938 L16.2810904,48.4099938 L16.2810904,47.0031754 C16.2810904,40.9883569 20.2158874,35.5745477 26.5482198,32.8743385 C26.6932886,32.8128985 26.7868814,32.6703262 26.7868814,32.512 L26.7868814,31.4872123 C26.7868814,31.3288862 26.6932886,31.1863138 26.5482198,31.1248738 C20.2158874,28.4230892 16.2810904,23.0069169 16.2810904,16.9905231 L16.2810904,15.5907938 L47.7165698,15.5892185 L47.7165698,16.98816 C47.7165698,23.0100677 43.7802129,28.4270277 37.4439808,31.1264492 C37.298912,31.1878892 37.2053192,31.3304615 37.2053192,31.4895754 L37.2053192,32.5064862 C37.2053192,32.6648123 37.298912,32.8073846 37.4439808,32.8696123 M51.2200601,50.0050708 L51.2200601,56.0057108 C51.2200601,56.2349292 51.1015092,56.4034954 51.0016769,56.5035323 C50.8082518,56.69888 50.5204539,56.81152 50.2108178,56.81152 L50.2084779,56.81152 L13.7891822,56.8123077 C13.2330851,56.8123077 12.7799399,56.4507569 12.7799399,56.0057108 L12.7799399,50.0050708 C12.7799399,49.5671138 13.2424443,49.1976862 13.7891822,49.1976862 L15.8763015,49.1976862 C15.8817611,49.1976862 15.8856608,49.2008369 15.8911204,49.2008369 C15.89658,49.2008369 15.9012596,49.1976862 15.9067192,49.1976862 L48.0987404,49.1976862 C48.1018602,49.1976862 48.1042,49.1992615 48.1065398,49.1992615 C48.1088796,49.1992615 48.1112194,49.1976862 48.1143392,49.1976862 L50.2084779,49.1976862 C50.7567757,49.1976862 51.2200601,49.5671138 51.2200601,50.0050708 M12.7799399,13.9965046 L12.7799399,7.99507692 C12.7799399,7.55790769 13.2424443,7.18769231 13.7891822,7.18769231 L50.2084779,7.18769231 C50.7567757,7.18769231 51.2200601,7.55790769 51.2200601,7.99507692 L51.2200601,13.9965046 C51.2200601,14.2257231 51.1015092,14.3935015 51.0016769,14.4935385 C50.8082518,14.6888862 50.5204539,14.8015262 50.2115977,14.8015262 L50.2084779,14.8015262 L48.1073197,14.8015262 L48.1065398,14.8015262 L48.1057599,14.8015262 L13.7891822,14.8031015 C13.2330851,14.8031015 12.7799399,14.4407631 12.7799399,13.9965046 M48.4965098,16.98816 L48.4965098,15.5892185 L50.207698,15.5892185 L50.2123776,15.5892185 C50.7247982,15.5892185 51.2130406,15.3930831 51.5523145,15.0512246 C51.8408923,14.7605662 52,14.3856246 52,13.9965046 L52,7.99507692 C52,7.11601231 51.1966619,6.4 50.2084779,6.4 L13.7891822,6.4 C12.8025582,6.4 12,7.11601231 12,7.99507692 L12,13.9965046 C12,14.8755692 12.8025582,15.5907938 13.7891822,15.5907938 L15.5011504,15.5907938 L15.5011504,16.9905231 C15.5011504,23.2534646 19.519401,28.8862523 26.0069415,31.7471508 L26.0069415,32.2520615 C19.519401,35.1113846 15.5011504,40.7425969 15.5011504,47.0031754 L15.5011504,48.4099938 L13.7891822,48.4099938 C12.8025582,48.4099938 12,49.1260062 12,50.0050708 L12,56.0057108 C12,56.8847754 12.8025582,57.6 13.7891822,57.6 L15.8911204,57.6 L50.207698,57.5992123 L50.2115977,57.5992123 C50.7247982,57.5992123 51.2130406,57.4030769 51.5530944,57.0612185 C51.8408923,56.77056 52,56.3956185 52,56.0057108 L52,50.0050708 C52,49.1260062 51.1966619,48.4099938 50.2084779,48.4099938 L48.4965098,48.4099938 L48.4965098,47.0016 C48.4965098,40.7378708 44.4766993,35.1050831 37.9852591,32.2465477 L37.9852591,31.7487262 C44.4766993,28.8909785 48.4965098,23.2558277 48.4965098,16.98816" id="Fill-1" fill="#213A4B"></path>
                </g>
            </g>
        </g>
    </g>
</svg>