<?xml version="1.0" encoding="UTF-8"?>
<svg width="20px" height="20px" viewBox="0 0 20 20" version="1.1" xmlns="http://www.w3.org/2000/svg" xmlns:xlink="http://www.w3.org/1999/xlink">
    <!-- Generator: Sketch 48.2 (47327) - http://www.bohemiancoding.com/sketch -->
    <title>5</title>
    <desc>Created with Sketch.</desc>
    <defs></defs>
    <g id="Footer" stroke="none" stroke-width="1" fill="none" fill-rule="evenodd" transform="translate(-217.000000, -122.000000)">
        <g id="5">
            <g transform="translate(215.000000, 120.000000)">
                <rect id="Rectangle-11" fill-opacity="0" fill="#D8D8D8" x="0" y="0" width="24" height="24"></rect>
                <path d="M17.847619,22 L17.847619,15.4819048 C17.847619,14.4114286 17.7580952,13.6361905 17.5790476,13.16 C17.2533333,12.3580952 16.6133333,11.9561905 15.6609524,11.9561905 C14.7085714,11.9561905 14.0380952,12.312381 13.6514286,13.0266667 C13.3542857,13.5619048 13.2038095,14.3504762 13.2038095,15.392381 L13.2038095,22 L9.09714286,22 L9.09714286,8.65142857 L13.0704762,8.65142857 L13.0704762,10.4819048 L13.1161905,10.4819048 C13.4133333,9.88761905 13.8895238,9.39619048 14.5447619,9.00952381 C15.2590476,8.53333333 16.0914286,8.2952381 17.0438095,8.2952381 C18.9790476,8.2952381 20.3333333,8.9047619 21.1066667,10.1257143 C21.7009524,11.1066667 22,12.6247619 22,14.6780952 L22,22 L17.847619,22 Z M2.31238095,22 L6.4647619,22 L6.4647619,8.65142857 L2.31238095,8.65142857 L2.31238095,22 Z M2.71428571,6.10666667 C2.23809524,5.63047619 2,5.0647619 2,4.41142857 C2,3.75619048 2.23809524,3.19047619 2.71428571,2.71428571 C3.19047619,2.23809524 3.75619048,2 4.40952381,2 C5.0647619,2 5.63047619,2.23809524 6.10666667,2.71428571 C6.58285714,3.19047619 6.82095238,3.75619048 6.82095238,4.41142857 C6.82095238,5.0647619 6.58285714,5.63047619 6.10666667,6.10666667 C5.63047619,6.58285714 5.0647619,6.82095238 4.40952381,6.82095238 C3.75619048,6.82095238 3.19047619,6.58285714 2.71428571,6.10666667 Z" id="Fill-1" fill="#1096BF"></path>
            </g>
        </g>
    </g>
</svg>