<svg width="20px" height="16px" viewBox="0 0 20 16" version="1.1" xmlns="http://www.w3.org/2000/svg" xmlns:xlink="http://www.w3.org/1999/xlink">
    <g id="Footer" stroke="none" stroke-width="1" fill="none" fill-rule="evenodd" transform="translate(-177.000000, -124.000000)">
        <g id="3">
            <g transform="translate(175.000000, 120.000000)">
                <rect id="Rectangle-11" fill-opacity="0" fill="#D8D8D8" x="0" y="0" width="24" height="24"></rect>
                <path d="M22,5.9 C21.4331613,6.71667075 20.747889,7.41249712 19.9441624,7.9875 C19.9526227,8.10416725 19.9568528,8.2791655 19.9568528,8.5125 C19.9568528,9.59583875 19.7961099,10.6770779 19.4746193,11.75625 C19.1531287,12.8354221 18.6645549,13.8708284 18.0088832,14.8625 C17.3532116,15.8541716 16.5727626,16.7312462 15.6675127,17.49375 C14.7622628,18.2562538 13.6709032,18.8645811 12.393401,19.31875 C11.1158989,19.7729189 9.74958426,20 8.29441624,20 C6.00168058,20 3.90356282,19.3958394 2,18.1875 C2.29610977,18.2208335 2.62605571,18.2375 2.98984772,18.2375 C4.89341053,18.2375 6.58967107,17.6625058 8.0786802,16.5125 C7.19035089,16.4958333 6.39509657,16.2270859 5.6928934,15.70625 C4.99069023,15.1854141 4.50846155,14.5208374 4.24619289,13.7125 C4.52538211,13.7541669 4.78341675,13.775 5.02030457,13.775 C5.38409657,13.775 5.74365305,13.7291671 6.09898477,13.6375 C5.1514335,13.4458324 4.36675438,12.9812537 3.74492386,12.24375 C3.12309334,11.5062463 2.81218274,10.6500049 2.81218274,9.675 L2.81218274,9.625 C3.38748173,9.94166825 4.00507284,10.1124999 4.66497462,10.1375 C4.10659619,9.7708315 3.6624382,9.29166963 3.33248731,8.7 C3.00253642,8.10833038 2.83756345,7.46667013 2.83756345,6.775 C2.83756345,6.041663 3.0236868,5.36250312 3.39593909,4.7375 C4.41963287,5.97917287 5.66539029,6.97291294 7.13324873,7.71875 C8.60110717,8.46458706 10.1725805,8.87916625 11.8477157,8.9625 C11.7800335,8.64583175 11.7461929,8.3375015 11.7461929,8.0375 C11.7461929,6.92082775 12.1459351,5.96875394 12.9454315,5.18125 C13.7449279,4.39374606 14.7115003,4 15.8451777,4 C17.0296168,4 18.0279147,4.42499575 18.8401015,5.275 C19.762272,5.09999912 20.6294376,4.77500238 21.4416244,4.3 C21.128594,5.25833812 20.5279232,5.99999738 19.6395939,6.525 C20.4263999,6.44166625 21.213194,6.233335 22,5.9 Z" id="" fill="#1096BF"></path>
            </g>
        </g>
    </g>
</svg>