<?xml version="1.0" standalone="no"?>
<!DOCTYPE svg PUBLIC "-//W3C//DTD SVG 20010904//EN"
 "http://www.w3.org/TR/2001/REC-SVG-20010904/DTD/svg10.dtd">
<svg version="1.0" xmlns="http://www.w3.org/2000/svg"
 width="500.000000pt" height="500.000000pt" viewBox="0 0 500.000000 500.000000"
 preserveAspectRatio="xMidYMid meet">
<metadata>
Created by potrace 1.11, written by Peter Selinger 2001-2013
</metadata>
<g transform="translate(0.000000,500.000000) scale(0.100000,-0.100000)"
fill="#000000" stroke="none">
<path d="M2415 4938 c-139 -77 -140 -263 0 -336 41 -21 122 -20 165 3 40 21
52 34 81 89 42 80 9 186 -75 237 -35 21 -137 26 -171 7z"/>
<path d="M1662 4556 c-114 -40 -173 -165 -131 -280 22 -59 49 -90 103 -115 55
-26 92 -31 146 -17 88 23 152 96 163 188 6 45 -22 130 -54 164 -54 59 -155 85
-227 60z"/>
<path d="M3215 4561 c-77 -19 -126 -63 -154 -137 -58 -155 75 -312 238 -282
100 18 174 108 174 211 0 95 -68 183 -159 206 -47 12 -55 12 -99 2z"/>
<path d="M813 4272 c-89 -46 -128 -151 -89 -243 55 -131 244 -147 323 -27 39
59 40 147 1 205 -49 74 -158 104 -235 65z"/>
<path d="M4012 4269 c-65 -33 -97 -87 -97 -164 0 -78 35 -137 98 -166 152 -68
309 68 258 224 -36 108 -157 157 -259 106z"/>
<path d="M2428 4176 c-211 -55 -282 -316 -126 -467 110 -106 280 -107 385 -2
58 58 77 105 80 195 2 64 -2 84 -23 127 -58 116 -193 179 -316 147z"/>
<path d="M1330 3841 c-109 -35 -171 -114 -178 -226 -4 -59 -1 -78 18 -116 50
-100 119 -144 225 -143 80 0 127 19 176 68 120 120 85 328 -68 401 -42 21
-134 29 -173 16z"/>
<path d="M3515 3838 c-172 -61 -226 -284 -99 -411 123 -123 318 -92 397 63 83
162 -38 361 -218 359 -27 0 -63 -5 -80 -11z"/>
<path d="M4272 3468 c-88 -33 -141 -109 -142 -202 0 -152 155 -257 292 -197
62 28 97 63 119 120 65 171 -100 342 -269 279z"/>
<path d="M570 3469 c-44 -18 -90 -59 -111 -101 -85 -166 59 -352 239 -308 171
41 219 256 83 372 -55 47 -145 63 -211 37z"/>
<path d="M1103 2771 c-17 -4 -52 -20 -78 -35 -119 -70 -165 -230 -102 -359 49
-98 134 -151 247 -151 90 -1 134 18 200 84 129 128 92 353 -71 436 -53 26
-144 38 -196 25z"/>
<path d="M3755 2771 c-83 -22 -146 -73 -187 -151 -34 -67 -33 -176 4 -246 51
-97 135 -148 248 -148 64 0 83 4 129 29 242 133 168 499 -106 520 -32 2 -71 1
-88 -4z"/>
<path d="M200 2683 c-65 -10 -135 -73 -146 -130 -25 -132 52 -236 176 -237
148 -1 238 168 153 288 -41 58 -114 90 -183 79z"/>
<path d="M4705 2677 c-96 -31 -153 -139 -122 -232 44 -133 212 -173 310 -73
37 38 47 68 47 136 -1 45 -6 65 -28 96 -46 66 -134 97 -207 73z"/>
<path d="M579 1936 c-121 -43 -178 -170 -128 -287 36 -83 103 -126 195 -127
92 0 164 47 199 131 70 167 -96 344 -266 283z"/>
<path d="M4291 1943 c-43 -9 -100 -52 -128 -96 -54 -86 -39 -202 36 -270 104
-94 263 -68 330 53 46 82 28 199 -38 258 -54 48 -132 70 -200 55z"/>
<path d="M1330 1641 c-148 -45 -221 -207 -156 -346 110 -237 468 -161 469 100
1 168 -158 293 -313 246z"/>
<path d="M3483 1619 c-32 -16 -70 -45 -86 -66 -94 -125 -54 -302 85 -375 59
-31 165 -32 224 0 59 30 110 94 124 154 40 165 -61 304 -226 314 -54 3 -71 -1
-121 -27z"/>
<path d="M2393 1354 c-24 -9 -62 -34 -86 -57 -74 -72 -102 -161 -82 -259 26
-131 136 -221 271 -221 102 1 189 52 242 142 24 40 27 56 27 131 0 95 -14 135
-69 194 -70 76 -203 107 -303 70z"/>
<path d="M815 1063 c-68 -35 -105 -95 -105 -166 0 -171 201 -250 319 -127 83
88 57 236 -51 289 -52 25 -121 27 -163 4z"/>
<path d="M4006 1058 c-49 -25 -88 -86 -94 -148 -16 -165 185 -263 312 -151 63
55 74 177 22 245 -55 73 -158 96 -240 54z"/>
<path d="M1658 849 c-120 -40 -177 -184 -118 -298 78 -154 302 -153 380 0 24
46 29 82 18 138 -24 131 -152 204 -280 160z"/>
<path d="M3222 860 c-57 -9 -120 -55 -148 -110 -70 -135 11 -296 159 -314 173
-21 300 170 212 320 -47 81 -128 118 -223 104z"/>
<path d="M2436 405 c-131 -46 -169 -213 -69 -306 42 -40 66 -49 128 -49 82 0
130 31 170 109 23 46 15 130 -17 176 -44 66 -137 96 -212 70z"/>
</g>
</svg>
